<svg xmlns="http://www.w3.org/2000/svg" xmlns:xlink="http://www.w3.org/1999/xlink" width="360" height="360" viewBox="0 0 360 360">
  <defs>
    <clipPath id="clip-path">
      <rect id="Rectangle_23" data-name="Rectangle 23" width="360" height="360"/>
    </clipPath>
    <clipPath id="clip-path-2">
      <path id="Path_14" data-name="Path 14" d="M3,0H86.29a3,3,0,0,1,3,3V96.943H0V3A3,3,0,0,1,3,0Z" transform="translate(0 0)" fill="#707070" stroke="#3f3f3f" stroke-linejoin="round" stroke-width="5"/>
    </clipPath>
  </defs>
  <g id="cardman-multiplayer_1" data-name="cardman-multiplayer – 1" clip-path="url(#clip-path)">
    <rect id="Rectangle_14" data-name="Rectangle 14" width="360" height="360" fill="rgba(255,255,255,0)"/>
    <rect id="Rectangle_15" data-name="Rectangle 15" width="360" height="360" rx="50" fill="#3f3f3f"/>
    <g id="Group_9" data-name="Group 9" transform="matrix(0.961, -0.276, 0.276, 0.961, 23.424, 92.997)">
      <rect id="Rectangle_16" data-name="Rectangle 16" width="129.809" height="205.877" rx="20" fill="#8b8b8b"/>
      <text id="A" transform="translate(15.692 46.659)" fill="#3f3f3f" font-size="42" font-family="SegoeUI-Semibold, Segoe UI" font-weight="600"><tspan x="0" y="0">A</tspan></text>
    </g>
    <g id="Group_10" data-name="Group 10" transform="matrix(0.961, -0.276, 0.276, 0.961, 50.119, 152.12)" clip-path="url(#clip-path-2)">
      <path id="Path_13" data-name="Path 13" d="M6.516.354A10.108,10.108,0,0,0,1.068,4.8L0,6.7v76.19l1.069,1.9a9.953,9.953,0,0,0,5.585,4.482c1.758.483,74.224.483,75.982,0a9.953,9.953,0,0,0,5.585-4.482l1.069-1.9V6.7L88.221,4.8A9.953,9.953,0,0,0,82.636.319C81.016-.129,8.067-.094,6.516.354ZM63.847,9.765c4.068.827,7.343,1.931,7.343,2.448,0,1.138-3.516,16.548-3.861,17-.483.586-1.207.448-5.1-.93-7.516-2.655-14.41-2.207-17.79,1.172-2.62,2.62-3.585,6.412-3.585,13.756.035,5.31.552,8.929,1.758,12.1a12.35,12.35,0,0,0,6.344,6.516c3.62,1.276,9.48,1.069,15.962-.552,2.655-.655,2.861-.655,3.723-.1.758.483.862.758.69,1.827-.1.69-.517,4.447-.9,8.343a70.768,70.768,0,0,1-.965,7.309c-.69.655-7.55,1.689-12.48,1.9C39.128,81.13,28.1,76.2,22.406,65.995c-5.721-10.205-6.1-28.132-.86-39.1C26.27,17.074,34.3,11.386,46.2,9.456a75.447,75.447,0,0,1,17.651.31Z" transform="translate(0 3.658)" fill="#707070"/>
    </g>
    <g id="Group_11" data-name="Group 11" transform="matrix(0.999, 0.035, -0.035, 0.999, 90.122, 56.842)">
      <rect id="Rectangle_17" data-name="Rectangle 17" width="129.809" height="205.877" rx="20" transform="translate(0 0.407)" fill="#aeaeae"/>
      <text id="B" transform="translate(16.298 45)" fill="#3f3f3f" font-size="42" font-family="SegoeUI-Semibold, Segoe UI" font-weight="600"><tspan x="0" y="0">B</tspan></text>
    </g>
    <text id="_" data-name="?" transform="translate(97.563 211.502) rotate(4)" fill="#707070" font-size="125" font-family="SegoeUI-Semibold, Segoe UI" font-weight="600"><tspan x="0" y="0">?</tspan></text>
    <g id="Group_12" data-name="Group 12" transform="translate(154.247 49.008) rotate(11)">
      <rect id="Rectangle_18" data-name="Rectangle 18" width="129.809" height="205.877" rx="20" transform="translate(0 3.293)" fill="#d6d6d6"/>
      <text id="C" transform="translate(16.885 44)" fill="#3f3f3f" font-size="41" font-family="SegoeUI-Semibold, Segoe UI" font-weight="600"><tspan x="0" y="0">C</tspan></text>
    </g>
    <g id="Group_13" data-name="Group 13" transform="translate(127.784 106.262)">
      <g id="Rectangle_19" data-name="Rectangle 19" transform="translate(43.429 39.698) rotate(42)" fill="none" stroke="#787878" stroke-linejoin="round" stroke-width="30">
        <rect width="41.588" height="64.903" rx="20.794" stroke="none"/>
        <rect x="15" y="15" width="11.588" height="34.903" rx="5.794" fill="none"/>
      </g>
      <g id="Rectangle_20" data-name="Rectangle 20" transform="translate(73.045 20.794) rotate(42)" fill="none" stroke="#bcbcbc" stroke-linejoin="round" stroke-width="30">
        <rect width="41.588" height="64.903" rx="20.794" stroke="none"/>
        <rect x="15" y="15" width="11.588" height="34.903" rx="5.794" fill="none"/>
      </g>
      <g id="Rectangle_21" data-name="Rectangle 21" transform="translate(102.661 0) rotate(42)" fill="none" stroke="#777" stroke-linejoin="round" stroke-width="30">
        <rect width="41.588" height="64.903" rx="20.794" stroke="none"/>
        <rect x="15" y="15" width="11.588" height="34.903" rx="5.794" fill="none"/>
      </g>
    </g>
    <g id="Group_14" data-name="Group 14" transform="translate(237.06 61.882) rotate(25.976)">
      <rect id="Rectangle_22" data-name="Rectangle 22" width="129.809" height="205.877" rx="20" transform="translate(0 7.657)" fill="#eee"/>
      <text id="D" transform="translate(14.95 45)" fill="#3f3f3f" font-size="42" font-family="SegoeUI-Semibold, Segoe UI" font-weight="600"><tspan x="0" y="0">D</tspan></text>
    </g>
    <text id="_2" data-name="💡" transform="translate(190.345 205.472) rotate(25.976)" fill="#707070" font-size="87" font-family="SegoeUIEmoji, Segoe UI Emoji"><tspan x="0" y="0">💡</tspan></text>
  </g>
</svg>
