<svg xmlns="http://www.w3.org/2000/svg" xmlns:xlink="http://www.w3.org/1999/xlink" width="360" height="360" viewBox="0 0 360 360">
  <defs>
    <clipPath id="clip-path">
      <rect id="Rectangle_24" data-name="Rectangle 24" width="360" height="360"/>
    </clipPath>
  </defs>
  <g id="bookmark-purifier" clip-path="url(#clip-path)">
    <rect id="Rectangle_1" data-name="Rectangle 1" width="360" height="360" rx="50" fill="#457d52"/>
    <g id="Group_3" data-name="Group 3" transform="translate(40.5 79.799)">
      <path id="Path_6" data-name="Path 6" d="M236.977,291.209c-1.162,2.905-2.615,151.658-2.615,151.658s19.466-1.162,22.371-1.162,51.134,4.358,52.005,4.358,27.31,10.17,28.182,11.04,11.331,2.034,11.331,2.034l19.756-9.587,38.64-7.844,31.668-1.743,17.432,1.743-1.162-151.948-44.741-4.068s-29.344,8.135-30.215,8.135-25.567,11.912-25.567,11.912l-8.135,8.427-29.053-18.3L282.009,288.3l-36.316-2.615Z" transform="translate(-204.553 -279.781)" fill="#d9d9c7"/>
      <path id="Path_7" data-name="Path 7" d="M158.63,341.307V507.491l21.906-7.176,30.593-6.043,34.37-2.266,34.747,4.91,48.344-4.91h30.97l27.57,2.266,31.728,11.708,7.176,1.511L424.525,336.4h-21.15l-1.511,139.368-17.752-1.511-38.9,1.511-24.55,8.31-22.284,5.285H280.246l-23.04-8.687-27.57-4.91H183.558l-3.022-18.883V336.4l-21.906-1.511Z" transform="translate(-151.541 -314.219)" fill="#a49977" stroke="#707070" stroke-width="1"/>
      <g id="book_1_" data-name="book (1)" transform="translate(0 0)">
        <g id="Group_2" data-name="Group 2" transform="translate(0 0)">
          <path id="Path_5" data-name="Path 5" d="M273.706,74.964h-18.4V68.688a5.41,5.41,0,0,0-3.9-5.409,152.4,152.4,0,0,0-39.008-4.98c-21.641,0-51.127,4.869-72.93,27.051C117.836,62.953,88.133,58.3,66.546,58.3a152.4,152.4,0,0,0-39.008,4.98,5.411,5.411,0,0,0-3.9,5.409V74.91H5.41A5.41,5.41,0,0,0,0,80.319V253.124a5.4,5.4,0,0,0,8.061,4.707c.54-.27,54.644-29.865,130.17-10.821h1.3a5.416,5.416,0,0,0,1.3,0C216.572,227.8,270.675,257.344,271,257.831a5.41,5.41,0,0,0,8.118-4.652V80.374a5.41,5.41,0,0,0-5.41-5.41ZM10.821,244.522V85.785h12.93v135.69a5.41,5.41,0,0,0,6.222,5.41,236.761,236.761,0,0,1,33.814-2.705,140.342,140.342,0,0,1,46.2,6.98,198.9,198.9,0,0,0-99.17,13.363Zm52.966-31.11a238.053,238.053,0,0,0-29.432,1.894V72.962a149.218,149.218,0,0,1,32.083-3.57c20.234,0,48.15,4.653,67.52,26.51l.162,134.77c-11.253-7.359-33.219-17.26-70.334-17.26ZM144.941,95.9c19.369-21.641,47.286-26.511,67.52-26.511a149.871,149.871,0,0,1,32.083,3.57V215.307a237.985,237.985,0,0,0-29.269-1.948c-36.9,0-58.918,9.9-70.334,17.259Zm123.3,148.62a198.935,198.935,0,0,0-99.387-13.363,140.674,140.674,0,0,1,46.42-6.979,236.69,236.69,0,0,1,34.031,2.651,5.41,5.41,0,0,0,6.222-5.41V85.785h12.93Z" transform="translate(0 -58.299)"/>
        </g>
      </g>
    </g>
    <g id="Group_4" data-name="Group 4" transform="translate(146.701 48.639)">
      <path id="Path_8" data-name="Path 8" d="M359.067,437.314c5.463,16.388,10.925,18.512,11.229,19.12s10.167,7.89,10.319,8.5,11.229,6.525,11.229,6.525l25.341,5.16,21.851-5.16,14.416-25.341V428.361l-23.52-8.953-10.925,6.98-23.975,7.587-29.741,3.338Z" transform="translate(-353.147 -331.533)" fill="#e1c84f"/>
      <g id="wiping-swipe-for-floors" transform="translate(0 0)">
        <g id="Group_1" data-name="Group 1" transform="translate(0 0)">
          <path id="Path_3" data-name="Path 3" d="M526.248,2.761l-34.9,67.668q.3.084.6.18a26,26,0,0,1,4.146,1.731,21.969,21.969,0,0,1,4.238,2.892l34.97-67.8a5.092,5.092,0,1,0-9.052-4.668Z" transform="translate(-395.852 -0.001)"/>
          <path id="Path_4" data-name="Path 4" d="M37.616,421.134a79.09,79.09,0,0,0,20.25,12.96A105.442,105.442,0,0,0,83.4,442.032l.041.006a3.469,3.469,0,0,0,.468.032c.038,0,.076,0,.113,0,14.014-.458,24.936-5.125,32.462-13.871,9.9-11.5,13.477-28.8,12.78-43.672a18.183,18.183,0,0,0-4.692-11.7c-.222-.231-.45-.457-.688-.674a16.793,16.793,0,0,0-3.455-2.4,20.876,20.876,0,0,0-3.371-1.412,11.074,11.074,0,0,0-1.445-.36,11.291,11.291,0,0,0-2-.178c-4.913,0-9.624,3.088-13.222,6.242-3.716,3.257-7.487,6.808-11.684,9.589-4.6,3.048-9.651,4.583-14.91,6.08a128.011,128.011,0,0,1-20.793,3.958,169.519,169.519,0,0,1-18.86,1.107q-3.752,0-7.488-.2c-.144-.008-.289-.015-.433-.025-.08-.005-.161-.008-.24-.008a3.459,3.459,0,0,0-3.27,4.585A52.615,52.615,0,0,0,37.616,421.134Zm-4.848-19.47h.006c.35,0,.712,0,1.083,0a180.436,180.436,0,0,0,20.127-1.129C70.864,398.618,84.6,394.517,95,388.32a1.873,1.873,0,0,1,.96-.264,1.894,1.894,0,0,1,.912.235c6.044,3.322,15.436,8.244,22.133,10.634a1.894,1.894,0,0,1,1.241,2c-.8,6.99-3.068,15.883-9.03,22.791-6.106,7.076-15.12,10.914-26.806,11.415l-.11,0a2.614,2.614,0,0,1-.452-.04c-1.177-.208-4.082-.768-7.98-1.841,1.11-.491,2.261-1.08,3.422-1.735,1.04-.588,2.089-1.228,3.128-1.9,3.212-2.072,6.323-4.425,8.744-6.36a.615.615,0,0,0-.627-1.045,83.779,83.779,0,0,1-18.1,4.68c-1.9.307-3.731.563-5.423.776-1.98.25-3.77.44-5.264.583q-.584-.258-1.17-.526a81.988,81.988,0,0,1-9.41-5.051,37.208,37.208,0,0,0,3.95-.6c1.227-.25,2.468-.552,3.69-.884a96.7,96.7,0,0,0,9.357-3.12.411.411,0,0,0-.189-.791c-4.26.41-10.165.448-15.21.373-1.652-.024-3.212-.06-4.59-.1-1.813-.052-3.313-.108-4.3-.148q-.868-.726-1.7-1.472-1.068-.966-2.061-1.969c1.024-.1,2.087-.267,3.167-.473,1.009-.193,2.032-.424,3.049-.681a93.477,93.477,0,0,0,10.528-3.425.411.411,0,0,0-.189-.792c-4,.385-9.45.442-14.275.386-1.19-.014-2.342-.034-3.425-.059-1.205-.027-2.325-.058-3.316-.09a44.636,44.636,0,0,1-3.711-5.8.93.93,0,0,1,.821-1.366Z" transform="translate(-22.528 -292.876)"/>
          <circle id="Ellipse_1" data-name="Ellipse 1" cx="8.175" cy="8.175" r="8.175" transform="translate(113.781 118.059)"/>
          <circle id="Ellipse_2" data-name="Ellipse 2" cx="4.13" cy="4.13" r="4.13" transform="translate(100.194 140.824)"/>
          <circle id="Ellipse_3" data-name="Ellipse 3" cx="4.13" cy="4.13" r="4.13" transform="translate(122.589 139.872)"/>
        </g>
      </g>
    </g>
  </g>
</svg>
