<svg xmlns="http://www.w3.org/2000/svg" xmlns:xlink="http://www.w3.org/1999/xlink" width="360" height="360" viewBox="0 0 360 360">
  <defs>
    <clipPath id="clip-path">
      <rect id="Rectangle_28" data-name="Rectangle 28" width="360" height="360"/>
    </clipPath>
  </defs>
  <g id="poznajmy-sie" clip-path="url(#clip-path)">
    <rect id="Rectangle_26" data-name="Rectangle 26" width="360" height="360" fill="rgba(255,255,255,0)"/>
    <rect id="Rectangle_27" data-name="Rectangle 27" width="360" height="360" rx="50" fill="#8d3a63"/>
    <g id="Ellipse_1" data-name="Ellipse 1" transform="translate(45 45)" fill="#d55829" stroke="#1d1d1d" stroke-width="10">
      <circle cx="135" cy="135" r="135" stroke="none"/>
      <circle cx="135" cy="135" r="140" fill="none"/>
    </g>
    <path id="Path_15" data-name="Path 15" d="M2982.087,145.5l-20.172,1.444-24.993,6.347-23.67,9.521-16.265,12.7-11.505,10.05,96.72,96.588Z" transform="translate(-2801.937 -101.85)" fill="#5778c5"/>
    <path id="Path_16" data-name="Path 16" d="M96.606,0,76.434,1.444,51.44,7.791,27.77,17.313l-16.265,12.7L0,40.058l96.72,96.588Z" transform="translate(43.781 276.732) rotate(-90)" fill="#5778c5"/>
    <path id="Path_17" data-name="Path 17" d="M96.606,0,76.434,1.444,51.44,7.791,27.77,17.313l-16.265,12.7L0,40.058l96.72,96.588Z" transform="translate(276.863 316.796) rotate(180)" fill="#5778c5"/>
    <path id="Path_18" data-name="Path 18" d="M96.606,0,76.434,1.444,51.44,7.791,27.77,17.313l-16.265,12.7L0,40.058l96.72,96.588Z" transform="translate(316.627 83.413) rotate(90)" fill="#5778c5"/>
    <path id="Path_19" data-name="Path 19" d="M96.606,0,76.434,1.444,51.44,7.791,27.77,17.313l-16.265,12.7L0,40.058l96.72,96.588Z" transform="translate(43.781 276.732) rotate(-90)" fill="#5778c5"/>
    <g id="Ellipse_2" data-name="Ellipse 2" transform="translate(45 45)" fill="none" stroke="#1d1d1d" stroke-width="10">
      <circle cx="135" cy="135" r="135" stroke="none"/>
      <circle cx="135" cy="135" r="140" fill="none"/>
    </g>
    <g id="Ellipse_3" data-name="Ellipse 3" transform="translate(174.3 174.3)" fill="#1d1d1d" stroke="#444" stroke-width="10">
      <circle cx="5.7" cy="5.7" r="5.7" stroke="none"/>
      <circle cx="5.7" cy="5.7" r="10.7" fill="none"/>
    </g>
    <path id="Path_20" data-name="Path 20" d="M0,25.406H30L14.893,0Z" transform="translate(195.001 62.821) rotate(180)" fill="#ffdf0e" stroke="#1d1d1d" stroke-linejoin="round" stroke-width="10"/>
  </g>
</svg>
