<svg id="envelope_1_" data-name="envelope (1)" xmlns="http://www.w3.org/2000/svg" width="95.456" height="75" viewBox="0 0 95.456 75">
  <g id="Group_5" data-name="Group 5" transform="translate(0 0)">
    <path id="Path_11" data-name="Path 11" d="M9.162,70.27q1.811.854,10.92,5.073t13.956,6.5q.533.25,2.263,1.086t2.876,1.353q1.145.516,2.77,1.157a20.54,20.54,0,0,0,3.063.96,12.268,12.268,0,0,0,2.663.32h.107a12.279,12.279,0,0,0,2.664-.32,20.56,20.56,0,0,0,3.063-.96q1.624-.641,2.77-1.157t2.876-1.353q1.731-.837,2.264-1.086,4.9-2.278,24.929-11.57a23.118,23.118,0,0,0,6.5-4.378,7.529,7.529,0,0,0,2.611-5.375,4.8,4.8,0,0,0-2.531-4.023,10.613,10.613,0,0,0-5.992-1.673H8.523A9.577,9.577,0,0,0,2.21,56.671,5.793,5.793,0,0,0,0,61.3q0,2.243,2.93,4.86A24.547,24.547,0,0,0,9.162,70.27Z" transform="translate(0 -54.82)" fill="#212121"/>
    <path id="Path_12" data-name="Path 12" d="M90.128,189.8Q72.658,203.493,63.6,211.081q-3.036,2.589-4.927,4.039a29.106,29.106,0,0,1-5.034,2.96,13.587,13.587,0,0,1-5.859,1.511h-.108a13.591,13.591,0,0,1-5.859-1.511,29.121,29.121,0,0,1-5.034-2.96q-1.89-1.448-4.927-4.039Q24.663,204.976,5.381,189.8A29.865,29.865,0,0,1,0,184.437v48.969a10.3,10.3,0,0,0,2.5,6.97,7.691,7.691,0,0,0,6.02,2.9H86.934a7.691,7.691,0,0,0,6.019-2.9,10.3,10.3,0,0,0,2.5-6.97V184.437A31.161,31.161,0,0,1,90.128,189.8Z" transform="translate(0 -168.276)" fill="#212121"/>
  </g>
</svg>
