<svg xmlns="http://www.w3.org/2000/svg" width="100" height="75" viewBox="0 0 100 75">
  <path id="Path_56" data-name="Path 56" d="M100,123.151a12.389,12.389,0,0,1-1.6,6.013L66.821,93.836,98.053,66.511A12.408,12.408,0,0,1,100,73.152v50Zm-50-22.9L93.458,62.226A12.345,12.345,0,0,0,87.5,60.651h-75a12.3,12.3,0,0,0-5.954,1.575Zm12.116-2.3-10.059,8.807a3.136,3.136,0,0,1-4.113,0L37.882,97.95,5.908,133.728a12.349,12.349,0,0,0,6.592,1.923h75a12.349,12.349,0,0,0,6.592-1.923ZM1.947,66.511A12.41,12.41,0,0,0,0,73.152v50a12.349,12.349,0,0,0,1.605,6.013L33.176,93.83Z" transform="translate(0 -60.651)"/>
</svg>
