<svg xmlns="http://www.w3.org/2000/svg" width="75" height="75" viewBox="0 0 75 75">
  <g id="github-sign" transform="translate(0)">
    <g id="Group_4" data-name="Group 4" transform="translate(0 0)">
      <path id="Path_3" data-name="Path 3" d="M158.173,352.6q-4.573.852-4,4.281t5.138,2.283q4.573-1.14,4-4Q162.742,352.028,158.173,352.6Z" transform="translate(-130.51 -352.51)" fill="#212121"/>
      <path id="Path_4" data-name="Path 4" d="M141.9,354.885c-3.046,0-4.568,1.041-4.568,3.139q0,3.711,4.853,3.138,4.569,0,4.57-3.138Q146.753,354.318,141.9,354.885Z" transform="translate(-116.343 -354.808)" fill="#212121"/>
      <path id="Path_5" data-name="Path 5" d="M119.629,354.022q-1.14,3.143,3.711,4.284,4.283,1.705,5.424-1.714.858-3.137-3.711-4.568C122.2,351.265,120.39,351.922,119.629,354.022Z" transform="translate(-101.179 -351.719)" fill="#212121"/>
      <path id="Path_6" data-name="Path 6" d="M70.874,4.126A13.545,13.545,0,0,0,60.938,0H14.062A13.548,13.548,0,0,0,4.126,4.126,13.547,13.547,0,0,0,0,14.062V60.938a13.544,13.544,0,0,0,4.126,9.936A13.546,13.546,0,0,0,14.062,75H25a13.207,13.207,0,0,0,1.611-.073,1.89,1.89,0,0,0,1.074-.636,2.274,2.274,0,0,0,.537-1.635q0-.146-.025-3.321t-.025-5.03l-1.123.2a14.373,14.373,0,0,1-2.71.171,20.854,20.854,0,0,1-3.393-.342,7.607,7.607,0,0,1-3.272-1.464,6.2,6.2,0,0,1-2.148-3l-.488-1.124A12.2,12.2,0,0,0,13.5,56.25a5.893,5.893,0,0,0-2.124-1.856l-.342-.244a3.59,3.59,0,0,1-.635-.586,2.713,2.713,0,0,1-.439-.684q-.146-.342.244-.562a3.175,3.175,0,0,1,1.416-.219l.976.146a7.119,7.119,0,0,1,2.417,1.172,7.88,7.88,0,0,1,2.368,2.538,8.6,8.6,0,0,0,2.71,3.052,5.745,5.745,0,0,0,3.2,1.051,13.872,13.872,0,0,0,2.783-.244,9.722,9.722,0,0,0,2.2-.733,7.914,7.914,0,0,1,2.392-5.03,33.436,33.436,0,0,1-5.005-.879,19.947,19.947,0,0,1-4.589-1.9A13.141,13.141,0,0,1,17.137,48a15.729,15.729,0,0,1-2.563-5.127,24.386,24.386,0,0,1-1-7.325,14.242,14.242,0,0,1,3.858-10.059q-1.807-4.443.342-9.961,1.416-.44,4.2.659a29.448,29.448,0,0,1,4.077,1.88q1.294.78,2.075,1.319a35.254,35.254,0,0,1,18.751,0l1.855-1.172a26.267,26.267,0,0,1,4.493-2.148,6.4,6.4,0,0,1,3.955-.537q2.2,5.518.39,9.961a14.244,14.244,0,0,1,3.858,10.059,24.618,24.618,0,0,1-1,7.349,15.085,15.085,0,0,1-2.588,5.127,13.654,13.654,0,0,1-3.955,3.247,19.92,19.92,0,0,1-4.59,1.9,33.415,33.415,0,0,1-5,.88q2.537,2.2,2.538,6.933v11.67A3.142,3.142,0,0,0,47.07,74a1.349,1.349,0,0,0,.782.708,4.327,4.327,0,0,0,.953.244A10.96,10.96,0,0,0,50,75H60.938A14.088,14.088,0,0,0,75,60.936V14.062A13.548,13.548,0,0,0,70.874,4.126Z" transform="translate(0 0)" fill="#212121"/>
      <path id="Path_7" data-name="Path 7" d="M86.793,319.2q-2,1.422.572,4.565,2.859,2.853,4.57.855,2-1.422-.575-4.569Q88.507,317.481,86.793,319.2Z" transform="translate(-72.362 -268.275)" fill="#212121"/>
      <path id="Path_8" data-name="Path 8" d="M77.374,312.057q-.855,2,2,3.426c1.521.955,2.762.767,3.711-.568q.855-2-2-3.433Q78.23,310.624,77.374,312.057Z" transform="translate(-8.281 -260.872)" fill="#212121"/>
      <path id="Path_9" data-name="Path 9" d="M95.646,330.331q-2.572,1.422,0,5.137t4.853,2q2.571-2,0-5.427C98.978,329.571,97.359,328.993,95.646,330.331Z" transform="translate(-79.569 -278.578)" fill="#212121"/>
      <path id="Path_10" data-name="Path 10" d="M105.641,343.174c-1.714,1.526-1.336,3.327,1.142,5.428q3.421,3.418,5.708.849,2.286-2.279-1.142-5.42Q107.928,340.611,105.641,343.174Z" transform="translate(-88.48 -289.164)" fill="#212121"/>
    </g>
  </g>
</svg>
