<svg xmlns="http://www.w3.org/2000/svg" width="74.999" height="75" viewBox="0 0 74.999 75">
  <g id="linkedin-sign" transform="translate(0)">
    <path id="Path_2" data-name="Path 2" d="M70.876,4.126A13.543,13.543,0,0,0,60.941,0H14.065A13.547,13.547,0,0,0,4.129,4.126,13.547,13.547,0,0,0,0,14.062V60.937a13.547,13.547,0,0,0,4.126,9.937A13.546,13.546,0,0,0,14.065,75H60.94A14.087,14.087,0,0,0,75,60.937V14.062A13.547,13.547,0,0,0,70.876,4.126ZM22.854,62.792H11.575V28.906H22.854ZM21.829,22.632a6.424,6.424,0,0,1-4.639,1.685h-.049a6.207,6.207,0,0,1-4.516-1.685,5.586,5.586,0,0,1-1.734-4.175,5.5,5.5,0,0,1,1.782-4.2,6.5,6.5,0,0,1,4.614-1.66,6.24,6.24,0,0,1,4.541,1.66,5.772,5.772,0,0,1,1.758,4.2A5.552,5.552,0,0,1,21.829,22.632Zm41.6,40.161H52.151V44.678q0-7.665-5.664-7.666a5.525,5.525,0,0,0-3.613,1.2,7.514,7.514,0,0,0-2.2,2.906,8.055,8.055,0,0,0-.342,2.733V62.792H29.056q.146-30.663,0-33.887H40.335V33.69a11.328,11.328,0,0,1,10.108-5.566,12.224,12.224,0,0,1,9.424,3.857q3.565,3.858,3.564,11.376V62.792h0Z" transform="translate(-0.003 0)" fill="#212121"/>
  </g>
</svg>
